<!-- From Font Awesome 4.2.0 (fa-info-circle) -->
<svg xmlns="http://www.w3.org/2000/svg" viewBox="0 0 100 100">
<path d="m61 70.625v-6.8752q0-0.60152-0.38672-0.98828-0.38676-0.38676-0.98868-0.38676h-4.125v-22q0-0.60159-0.38672-0.98828-0.38672-0.38676-0.98828-0.38676h-13.75q-0.60156 0-0.98828 0.38676-0.38672 0.38669-0.38672 0.98828v6.8752q0 0.60159 0.38672 0.98828 0.38672 0.38676 0.98828 0.38676h4.125v13.75h-4.125q-0.60156 0-0.98828 0.38669-0.38672 0.38676-0.38672 0.98828v6.8752q0 0.60159 0.38672 0.98828t0.98828 0.38669h19.25q0.60156 0 0.98828-0.38669t0.38672-0.98828zm-5.5-38.5v-6.8752q0-0.60159-0.38672-0.98828-0.38742-0.38676-0.98868-0.38676h-8.25q-0.60156 0-0.98828 0.38669t-0.38672 0.98828v6.8752q0 0.60152 0.38672 0.98828 0.38676 0.38676 0.98802 0.38676h8.25q0.60156 0 0.98828-0.38669 0.38672-0.38676 0.38672-0.98828zm27.5 17.875q0 8.9806-4.426 16.565-4.4253 7.5834-12.009 12.009-7.584 4.426-16.565 4.426t-16.565-4.426-12.009-12.009q-4.426-7.584-4.426-16.565t4.426-16.565q4.425-7.583 12.009-12.009t16.565-4.426q8.9808 0 16.565 4.4258 7.5841 4.4262 12.009 12.009 4.426 7.5841 4.426 16.565z"/>
</svg>
