<svg xmlns="http://www.w3.org/2000/svg" viewBox="0 0 500 200">
<g fill="#fff">
<path d="m162.43 77.5v28.89c0 6.21-3.6 9.81-7.02 9.81-3.15 0-5.4-2.25-5.4-8.1v-30.6h-9v31.59c0 10.26 5.67 13.95 12.69 13.95 4.05 0 8.1-2.61 10.35-8.46 0.9 4.41 3.24 8.46 8.73 8.46 3.96 0 9.81-1.62 12.51-16.65h-3.33c-1.35 6.48-3.6 9.81-6.48 9.81-3.87 0-4.05-5.76-4.05-8.1v-30.6h-9z"/>
<path d="m206 77.5v4.32c-1.71-3.69-5.49-4.77-8.37-4.77-12.24 0-17.1 13.77-17.1 24.48 0 14.49 8.1 19.71 15.39 19.71 4.32 0 7.83-2.25 10.08-5.4v7.74c-5.85 2.43-11.79 6.39-11.79 12.6 0 4.86 3.6 8.82 9.54 8.82 6.03 0 11.25-4.14 11.25-15.39v-5.76c8.01-2.43 11.97-4.68 13.86-17.46h-3.33c-1.26 10.08-4.41 12.24-10.53 14.22v-43.11h-9zm-7.83 36.9c-5.22 0-8.19-3.87-8.19-13.5 0-8.01 2.97-18.9 10.71-18.9 2.7 0 4.5 1.98 5.31 3.87v19.17c0 5.31-4.23 9.36-7.83 9.36zm3.87 25.92c-2.7 0-4.32-1.8-4.32-4.5 0-3.33 2.34-5.94 8.28-8.64v6.3c0 4.23-0.72 6.84-3.96 6.84z"/>
<path d="m249.59 77.5v4.32c-1.71-3.69-5.49-4.77-8.37-4.77-12.24 0-17.1 14.31-17.1 25.38 0 15.12 8.1 20.61 15.39 20.61 5.67 0 9.9-3.87 11.7-8.55 0.9 4.5 3.24 8.55 8.73 8.55 3.96 0 9.81-1.62 12.51-16.65h-3.33c-1.35 6.48-3.6 9.81-6.48 9.81-3.87 0-4.05-5.76-4.05-8.1v-30.6h-9zm-7.83 38.7c-5.22 0-8.19-4.14-8.19-14.4 0-8.37 2.97-19.8 10.71-19.8 2.7 0 4.5 1.98 5.31 3.87v20.52c0 5.49-4.14 9.81-7.83 9.81z"/>
<path d="m289.41 91.27c0.81 1.17 1.89 1.89 3.33 1.89 2.34 0 3.51-2.34 3.51-5.31 0-7.02-4.05-10.8-11.61-10.8-13.59 0-16.65 15.03-16.65 25.02 0 15.57 8.91 20.97 17.19 20.97 8.82 0 16.83-7.83 19.71-16.65h-3.06c-3.06 6.66-7.38 9.81-13.68 9.81-5.85 0-10.62-2.7-10.62-15.3 0-8.55 1.98-19.08 8.46-19.08 3.15 0 4.95 1.98 4.95 4.77 0 1.71-0.54 3.87-1.53 4.68z"/>
<path d="m301.76 77.5v32.49c0 5.85 2.07 13.05 10.35 13.05 3.96 0 9.81-1.62 12.51-16.65h-3.33c-1.35 6.48-3.6 9.81-6.48 9.81-3.87 0-4.05-5.76-4.05-8.1v-30.6h-9zm-1.62-12.96c0 3.33 2.61 5.94 5.94 5.94 3.24 0 6.03-2.61 6.03-5.94 0-3.24-2.79-6.03-6.03-6.03-3.33 0-5.94 2.79-5.94 6.03z"/>
<path d="m337.66 77.05c-13.5 0-17.55 14.49-17.55 25.02 0 15.48 8.82 20.97 16.83 20.97 9.72 0 15.39-8.91 15.39-23.67 0-1.26-0.09-2.52-0.09-3.69 5.49-0.9 11.43-3.51 13.77-7.38l-1.35-2.43c-2.97 3.06-7.38 5.4-12.33 5.4h-0.54c-1.17-8.01-4.68-14.22-14.13-14.22zm0.9 39.15c-4.05 0-8.73-2.79-8.73-14.49 0-8.82 2.7-19.71 10.17-19.71 2.7 0 5.04 1.44 6.48 5.58-2.34 0.09-3.6 1.08-3.6 3.87 0 3.06 1.44 4.32 4.86 4.5 0.09 0.72 0.09 1.44 0.09 2.16 0 11.43-2.97 18.09-9.27 18.09z"/>
<path d="m380.4 77.5v28.89c0 6.21-3.6 9.81-7.02 9.81-3.15 0-5.4-2.25-5.4-8.1v-30.6h-9v31.59c0 10.26 5.67 13.95 12.69 13.95 4.05 0 8.1-2.61 10.35-8.46 0.9 4.41 3.24 8.46 8.73 8.46 3.96 0 9.81-1.62 12.51-16.65h-3.33c-1.35 6.48-3.6 9.81-6.48 9.81-3.87 0-4.05-5.76-4.05-8.1v-30.6h-9z"/>
<path d="m408.58 76.51c-0.9 8.82-4.41 17.73-7.56 26.64-1.8 0.99-3.24 3.42-3.24 6.57 0 5.85 2.88 13.32 13.41 13.32 5.13 0 13.95-3.15 13.95-12.06 0-9.45-1.71-13.14-7.47-36.27l-9.09 1.8zm7.02 33.48c0 4.41-2.52 6.3-6.3 6.3-3.96 0-6.39-2.43-7.29-6.66 0.72 0.9 1.53 1.26 2.43 1.26 1.44 0 2.88-1.26 2.88-3.51 0-1.98-0.9-3.24-1.98-3.96 1.8-6.48 4.5-12.42 5.22-19.08 3.33 15.66 5.04 18.27 5.04 25.65z"/>
<path d="m126.7 55.18v58.86l-25.02-57.78c-2.07-0.9-4.23-1.26-6.3-1.26-12.15 0-20.52 10.71-20.52 20.52 0 8.1 3.51 11.61 10.98 11.61-1.71-1.44-4.32-4.05-4.32-11.43 0-8.01 3.96-12.96 10.53-15.21v62.01h6.03v-50.67l22.59 50.67h12.06v-67.32h-6.03z"/>
<path d="m227.98 136.54c0-2.92 1.32-4.7 3.38-4.7s3.38 1.78 3.38 4.7c0 3.06-1.32 4.94-3.38 4.94s-3.38-1.88-3.38-4.94zm9.22 7.98c-0.38 0.12-0.84 0.2-1.42 0.2-1.26 0-2.44-0.46-3.04-1.5 2.66-0.6 4.4-3.04 4.4-6.68 0-4.22-2.36-6.72-5.78-6.72-3.4 0-5.76 2.5-5.76 6.72 0 3.78 1.86 6.24 4.68 6.74 0.84 1.94 2.64 3.34 5.24 3.34 0.9 0 1.66-0.18 2.1-0.38l-0.42-1.72z"/>
<path d="m242.48 143.38c1.34 0 2.3-0.66 3.16-1.68h0.06l0.18 1.44h1.88v-9.82h-2.3v6.72c-0.74 0.96-1.32 1.36-2.18 1.36-1.06 0-1.52-0.6-1.52-2.22v-5.86h-2.3v6.16c0 2.48 0.92 3.9 3.02 3.9z"/>
<path d="m253.07 143.38c1.16 0 2.16-0.58 3.04-1.32h0.08l0.16 1.08h1.9v-5.82c0-2.74-1.22-4.24-3.66-4.24-1.56 0-2.96 0.6-4.04 1.28l0.84 1.54c0.88-0.52 1.8-0.96 2.76-0.96 1.34 0 1.76 0.88 1.8 1.92-4.04 0.44-5.78 1.54-5.78 3.64 0 1.72 1.18 2.88 2.9 2.88zm0.74-1.8c-0.82 0-1.42-0.38-1.42-1.26 0-0.98 0.88-1.68 3.56-2.02v2.2c-0.74 0.68-1.34 1.08-2.14 1.08z"/>
<path d="m261.01 143.14h2.3v-6.86c0.82-0.8 1.38-1.22 2.24-1.22 1.08 0 1.54 0.6 1.54 2.22v5.86h2.3v-6.16c0-2.48-0.92-3.9-3.02-3.9-1.34 0-2.34 0.7-3.22 1.56h-0.08l-0.16-1.32h-1.9v9.82z"/>
<path d="m275.68 143.38c0.78 0 1.46-0.18 2-0.36l-0.4-1.7c-0.28 0.12-0.68 0.22-1.02 0.22-0.94 0-1.38-0.56-1.38-1.72v-4.68h2.5v-1.82h-2.5v-2.68h-1.92l-0.28 2.68-1.52 0.1v1.72h1.4v4.68c0 2.12 0.84 3.56 3.12 3.56z"/>
<path d="m279.44 143.14h2.3v-9.82h-2.3v9.82zm1.16-11.54c0.82 0 1.42-0.54 1.42-1.3 0-0.78-0.6-1.32-1.42-1.32s-1.42 0.54-1.42 1.32c0 0.76 0.6 1.3 1.42 1.3z"/>
<path d="m288.14 143.38c0.78 0 1.46-0.18 2-0.36l-0.4-1.7c-0.28 0.12-0.68 0.22-1.02 0.22-0.94 0-1.38-0.56-1.38-1.72v-4.68h2.5v-1.82h-2.5v-2.68h-1.92l-0.28 2.68-1.52 0.1v1.72h1.4v4.68c0 2.12 0.84 3.56 3.12 3.56z"/>
<path d="m292.56 147.18c2.14 0 3.16-1.38 3.98-3.6l3.56-10.26h-2.22l-1.48 4.82c-0.24 0.88-0.5 1.86-0.74 2.76h-0.08c-0.3-0.92-0.58-1.9-0.86-2.76l-1.7-4.82h-2.34l3.86 9.7-0.18 0.62c-0.32 0.98-0.92 1.68-1.96 1.68-0.24 0-0.52-0.08-0.7-0.14l-0.42 1.8c0.36 0.12 0.74 0.2 1.28 0.2z"/>
<path d="m311.19 143.38c1.68 0 3.06-0.68 4.12-1.9l-1.24-1.46c-0.74 0.8-1.64 1.34-2.8 1.34-2.2 0-3.6-1.8-3.6-4.78 0-2.94 1.52-4.74 3.66-4.74 1.02 0 1.8 0.46 2.48 1.14l1.24-1.5c-0.82-0.88-2.14-1.66-3.78-1.66-3.3 0-5.98 2.54-5.98 6.82 0 4.34 2.6 6.74 5.9 6.74z"/>
<path d="m321.32 143.38c2.46 0 4.68-1.88 4.68-5.14 0-3.28-2.22-5.16-4.68-5.16-2.44 0-4.66 1.88-4.66 5.16 0 3.26 2.22 5.14 4.66 5.14zm0-1.88c-1.44 0-2.3-1.3-2.3-3.26 0-1.98 0.86-3.28 2.3-3.28s2.32 1.3 2.32 3.28c0 1.96-0.88 3.26-2.32 3.26z"/>
<path d="m328.27 143.14h2.3v-6.86c0.76-0.82 1.46-1.22 2.06-1.22 1.04 0 1.52 0.6 1.52 2.22v5.86h2.3v-6.86c0.76-0.82 1.44-1.22 2.06-1.22 1.02 0 1.5 0.6 1.5 2.22v5.86h2.32v-6.16c0-2.48-0.96-3.9-3.04-3.9-1.24 0-2.22 0.76-3.16 1.76-0.46-1.1-1.28-1.76-2.72-1.76-1.22 0-2.18 0.7-3 1.58h-0.08l-0.16-1.34h-1.9v9.82z"/>
<path d="m345.15 147.02h2.3v-3.08l-0.06-1.64c0.8 0.68 1.66 1.08 2.52 1.08 2.18 0 4.2-1.94 4.2-5.3 0-3.04-1.42-5-3.86-5-1.08 0-2.14 0.58-2.96 1.28h-0.08l-0.16-1.04h-1.9v13.7zm4.28-5.54c-0.58 0-1.26-0.22-1.98-0.82v-4.58c0.76-0.74 1.44-1.1 2.16-1.1 1.48 0 2.12 1.16 2.12 3.12 0 2.22-1 3.38-2.3 3.38z"/>
<path d="m358.58 143.38c1.16 0 2.16-0.58 3.04-1.32h0.08l0.16 1.08h1.9v-5.82c0-2.74-1.22-4.24-3.66-4.24-1.56 0-2.96 0.6-4.04 1.28l0.84 1.54c0.88-0.52 1.8-0.96 2.76-0.96 1.34 0 1.76 0.88 1.8 1.92-4.04 0.44-5.78 1.54-5.78 3.64 0 1.72 1.18 2.88 2.9 2.88zm0.74-1.8c-0.82 0-1.42-0.38-1.42-1.26 0-0.98 0.88-1.68 3.56-2.02v2.2c-0.74 0.68-1.34 1.08-2.14 1.08z"/>
<path d="m366.51 143.14h2.3v-6c0.6-1.48 1.54-2.02 2.32-2.02 0.42 0 0.68 0.06 1.02 0.16l0.4-2c-0.3-0.14-0.62-0.2-1.12-0.2-1.04 0-2.08 0.7-2.78 1.98h-0.08l-0.16-1.74h-1.9v9.82z"/>
<path d="m373.97 143.14h2.3v-9.82h-2.3v9.82zm1.16-11.54c0.82 0 1.42-0.54 1.42-1.3 0-0.78-0.6-1.32-1.42-1.32s-1.42 0.54-1.42 1.32c0 0.76 0.6 1.3 1.42 1.3z"/>
<path d="m381.95 143.38c2.48 0 3.82-1.36 3.82-3.04 0-1.84-1.48-2.48-2.82-2.98-1.06-0.38-2.04-0.68-2.04-1.46 0-0.62 0.46-1.08 1.44-1.08 0.78 0 1.48 0.34 2.16 0.84l1.06-1.4c-0.8-0.62-1.9-1.18-3.26-1.18-2.2 0-3.58 1.22-3.58 2.94 0 1.64 1.46 2.38 2.76 2.86 1.04 0.4 2.1 0.76 2.1 1.58 0 0.68-0.5 1.18-1.56 1.18-1 0-1.84-0.42-2.72-1.1l-1.08 1.48c0.96 0.78 2.38 1.36 3.72 1.36z"/>
<path d="m391.86 143.38c2.46 0 4.68-1.88 4.68-5.14 0-3.28-2.22-5.16-4.68-5.16-2.44 0-4.66 1.88-4.66 5.16 0 3.26 2.22 5.14 4.66 5.14zm0-1.88c-1.44 0-2.3-1.3-2.3-3.26 0-1.98 0.86-3.28 2.3-3.28s2.32 1.3 2.32 3.28c0 1.96-0.88 3.26-2.32 3.26z"/>
<path d="m398.82 143.14h2.3v-6.86c0.82-0.8 1.38-1.22 2.24-1.22 1.08 0 1.54 0.6 1.54 2.22v5.86h2.3v-6.16c0-2.48-0.92-3.9-3.02-3.9-1.34 0-2.34 0.7-3.22 1.56h-0.08l-0.16-1.32h-1.9v9.82z"/>
<path d="m412.77 143.38c2.48 0 3.82-1.36 3.82-3.04 0-1.84-1.48-2.48-2.82-2.98-1.06-0.38-2.04-0.68-2.04-1.46 0-0.62 0.46-1.08 1.44-1.08 0.78 0 1.48 0.34 2.16 0.84l1.06-1.4c-0.8-0.62-1.9-1.18-3.26-1.18-2.2 0-3.58 1.22-3.58 2.94 0 1.64 1.46 2.38 2.76 2.86 1.04 0.4 2.1 0.76 2.1 1.58 0 0.68-0.5 1.18-1.56 1.18-1 0-1.84-0.42-2.72-1.1l-1.08 1.48c0.96 0.78 2.38 1.36 3.72 1.36z"/>
</g>
<path d="m348.54 117.1c0 3.33 2.61 5.94 5.94 5.94 3.24 0 6.03-2.61 6.03-5.94 0-3.24-2.79-6.03-6.03-6.03-3.33 0-5.94 2.79-5.94 6.03z" fill="#ff0"/>
</svg>
