<!-- From Font Awesome 4.2.0 (fa-random) -->
<svg viewBox="0 0 100 100" xmlns="http://www.w3.org/2000/svg">
<path fill="#fff" d="m37.165 69.587q-3.3482-5.1339-7.6451-15.234-1.2277 2.5112-2.0647 4.0458-0.83705 1.5346-2.26 3.5435t-2.846 3.1529-3.5156 1.9531q-2.0926 0.8092-4.548 0.8092h-12.5q-0.78125 0-1.2835 0.5022-0.5015 0.502-0.5015 1.283v10.714q0 0.7812 0.50223 1.2835 0.50223 0.5022 1.2835 0.5022h12.5q13.951 0 22.879-12.556zm62.835-44.587q0-0.7812-0.50223-1.2834l-17.857-17.858q-0.50223-0.5022-1.2835-0.5022-0.72545 0-1.2556 0.5301-0.53013 0.5302-0.53013 1.2556v10.714q-1.7857 0-4.7433-0.028t-4.5201-0.056-4.0737 0.056-3.9621 0.279q-1.4509 0.1953-3.5714 0.5859-2.1205 0.3907-3.5156 1.0324t-3.2366 1.5904-3.2924 2.2322q-1.4509 1.2834-3.0692 2.9854-1.6183 1.7021-3.125 3.8784 3.2924 5.1897 7.5893 15.234 1.2277-2.5112 2.0647-4.0458 0.83705-1.5346 2.26-3.5435t2.846-3.1529 3.5156-1.9531q2.0926-0.8092 4.548-0.8092h14.286v10.714q0 0.7812 0.50223 1.2835 0.50223 0.5022 1.2835 0.5022 0.66964 0 1.3393-0.558l17.8-17.8q0.502-0.502 0.502-1.283zm0 50q0-0.7812-0.50223-1.2834l-17.857-17.858q-0.50223-0.5022-1.2835-0.5022-0.72545 0-1.2556 0.5301-0.53013 0.5302-0.53013 1.2556v10.714h-14.286q-2.6786 0-4.8549-0.8371-2.1763-0.837-3.8504-2.5111t-2.846-3.4319q-1.1719-1.7579-2.5112-4.3248-1.7857-3.4598-4.3527-9.5424-1.6183-3.6831-2.7623-6.1942-1.144-2.5112-3.0134-5.8594t-3.5714-5.5804q-1.702-2.2321-4.1295-4.6317-2.4275-2.3995-5.0223-3.8225-2.5949-1.423-5.9431-2.3438-3.3482-0.9207-7.1429-0.9207h-12.5q-0.78125 0-1.2835 0.5022-0.5045 0.503-0.5045 1.284v10.714q0 0.7812 0.50223 1.2835 0.50223 0.5022 1.2835 0.5022h12.5q2.6786 0 4.8549 0.8371 2.1763 0.837 3.8504 2.5111t2.846 3.4319 2.5112 4.3248q1.7857 3.4598 4.3527 9.5424 1.6183 3.6831 2.7623 6.1942 1.144 2.5112 3.0134 5.8594t3.5714 5.5804q1.702 2.2321 4.1295 4.6316 2.4275 2.3996 5.0223 3.8226 2.5949 1.423 5.9431 2.3437 3.3482 0.9208 7.1429 0.9208h14.286v10.714q0 0.7812 0.50223 1.2835 0.50223 0.5022 1.2835 0.5022 0.66964 0 1.3393-0.558l17.803-17.802q0.502-0.502 0.502-1.283z"/>
</svg>
